<svg data-v-423bf9ae="" xmlns="http://www.w3.org/2000/svg" viewBox="0 0 269.7011770087761 60" class="font"><!----><defs data-v-423bf9ae=""><linearGradient data-v-423bf9ae="" gradientTransform="rotate(25)" id="8ce42752-2432-42a0-aa72-faacb4a2d82c" x1="0%" y1="0%" x2="100%" y2="0%"><stop data-v-423bf9ae="" offset="0%" style="stop-color: rgb(13, 33, 117); stop-opacity: 1;"></stop><stop data-v-423bf9ae="" offset="100%" style="stop-color: rgb(31, 30, 251); stop-opacity: 1;"></stop></linearGradient></defs><!----><g data-v-423bf9ae="" id="93d9d478-f641-480f-bb61-9ecf44ddf0a7" fill="#ffffff" transform="matrix(5.976095072581828,0,0,5.976095072581828,-7.171315746855754,-33.705174934629575)"><path d="M1.20 13.05L1.20 6.06Q1.61 5.95 2.30 5.81Q2.98 5.67 3.98 5.67L3.98 5.67Q4.80 5.67 5.36 5.91Q5.91 6.15 6.24 6.59Q6.57 7.03 6.71 7.64Q6.85 8.26 6.85 9.00L6.85 9.00L6.85 13.05L5.94 13.05L5.94 9.30Q5.94 8.53 5.83 7.99Q5.73 7.46 5.48 7.13Q5.24 6.79 4.84 6.64Q4.44 6.50 3.84 6.50L3.84 6.50Q3.19 6.50 2.72 6.57Q2.25 6.64 2.11 6.69L2.11 6.69L2.11 13.05L1.20 13.05ZM8.74 9.42L8.74 9.42Q8.74 8.47 9.01 7.76Q9.28 7.06 9.72 6.58Q10.16 6.10 10.73 5.87Q11.30 5.64 11.90 5.64L11.90 5.64Q13.23 5.64 14.02 6.51Q14.81 7.38 14.81 9.18L14.81 9.18Q14.81 9.30 14.80 9.41Q14.80 9.52 14.78 9.62L14.78 9.62L9.70 9.62Q9.74 10.95 10.36 11.66Q10.98 12.38 12.32 12.38L12.32 12.38Q13.06 12.38 13.50 12.24Q13.93 12.10 14.13 12.00L14.13 12.00L14.29 12.78Q14.10 12.89 13.56 13.05Q13.02 13.20 12.29 13.20L12.29 13.20Q11.34 13.20 10.67 12.92Q10.00 12.64 9.56 12.14Q9.13 11.63 8.93 10.94Q8.74 10.25 8.74 9.42ZM9.73 8.85L13.87 8.85Q13.85 7.71 13.34 7.08Q12.84 6.45 11.91 6.45L11.91 6.45Q11.42 6.45 11.04 6.65Q10.65 6.85 10.37 7.17Q10.08 7.50 9.92 7.94Q9.76 8.37 9.73 8.85L9.73 8.85ZM23.02 9.44L23.02 9.44Q23.02 10.29 22.77 10.99Q22.53 11.69 22.09 12.18Q21.64 12.67 21.04 12.94Q20.44 13.22 19.71 13.22L19.71 13.22Q18.98 13.22 18.38 12.94Q17.78 12.67 17.34 12.18Q16.90 11.69 16.65 10.99Q16.41 10.29 16.41 9.44L16.41 9.44Q16.41 8.58 16.65 7.88Q16.90 7.18 17.34 6.68Q17.78 6.19 18.38 5.92Q18.98 5.64 19.71 5.64L19.71 5.64Q20.44 5.64 21.04 5.92Q21.64 6.19 22.09 6.68Q22.53 7.18 22.77 7.88Q23.02 8.58 23.02 9.44ZM22.05 9.44L22.05 9.44Q22.05 8.08 21.42 7.27Q20.79 6.47 19.71 6.47L19.71 6.47Q18.63 6.47 18.00 7.27Q17.37 8.08 17.37 9.44L17.37 9.44Q17.37 10.79 18.00 11.59Q18.63 12.39 19.71 12.39L19.71 12.39Q20.79 12.39 21.42 11.59Q22.05 10.79 22.05 9.44ZM29.71 12.68L29.71 12.21Q29.62 12.28 29.46 12.37Q29.29 12.46 29.04 12.56Q28.80 12.66 28.48 12.72Q28.17 12.78 27.78 12.78L27.78 12.78Q27.15 12.78 26.56 12.59Q25.97 12.39 25.53 11.97Q25.09 11.55 24.82 10.88Q24.56 10.22 24.56 9.27L24.56 9.27Q24.56 8.50 24.79 7.84Q25.03 7.18 25.47 6.70Q25.91 6.22 26.55 5.94Q27.19 5.67 27.99 5.67L27.99 5.67Q28.99 5.67 29.60 5.80Q30.21 5.94 30.60 6.06L30.60 6.06L30.60 12.67Q30.60 14.29 29.76 14.99Q28.92 15.68 27.23 15.68L27.23 15.68Q26.53 15.68 25.96 15.57Q25.40 15.47 24.99 15.33L24.99 15.33L25.17 14.50Q25.51 14.66 26.09 14.77Q26.67 14.88 27.26 14.88L27.26 14.88Q28.55 14.88 29.13 14.38Q29.71 13.89 29.71 12.68L29.71 12.68ZM29.69 11.35L29.69 6.69Q29.46 6.62 29.08 6.56Q28.70 6.50 28 6.50L28 6.50Q27.41 6.50 26.96 6.70Q26.50 6.90 26.18 7.27Q25.86 7.64 25.69 8.16Q25.52 8.67 25.52 9.28L25.52 9.28Q25.52 10.00 25.72 10.51Q25.91 11.02 26.23 11.34Q26.54 11.66 26.95 11.81Q27.36 11.96 27.78 11.96L27.78 11.96Q28.39 11.96 28.90 11.77Q29.41 11.59 29.69 11.35L29.69 11.35ZM32.58 9.42L32.58 9.42Q32.58 8.47 32.85 7.76Q33.12 7.06 33.56 6.58Q34.01 6.10 34.57 5.87Q35.14 5.64 35.74 5.64L35.74 5.64Q37.07 5.64 37.86 6.51Q38.65 7.38 38.65 9.18L38.65 9.18Q38.65 9.30 38.65 9.41Q38.64 9.52 38.63 9.62L38.63 9.62L33.54 9.62Q33.59 10.95 34.20 11.66Q34.82 12.38 36.16 12.38L36.16 12.38Q36.90 12.38 37.34 12.24Q37.77 12.10 37.97 12.00L37.97 12.00L38.14 12.78Q37.94 12.89 37.40 13.05Q36.86 13.20 36.13 13.20L36.13 13.20Q35.18 13.20 34.51 12.92Q33.84 12.64 33.40 12.14Q32.97 11.63 32.77 10.94Q32.58 10.25 32.58 9.42ZM33.57 8.85L37.72 8.85Q37.69 7.71 37.18 7.08Q36.68 6.45 35.76 6.45L35.76 6.45Q35.27 6.45 34.88 6.65Q34.50 6.85 34.21 7.17Q33.92 7.50 33.76 7.94Q33.60 8.37 33.57 8.85L33.57 8.85ZM40.68 13.05L40.68 6.06Q41.09 5.95 41.78 5.81Q42.46 5.67 43.46 5.67L43.46 5.67Q44.28 5.67 44.84 5.91Q45.39 6.15 45.72 6.59Q46.05 7.03 46.19 7.64Q46.33 8.26 46.33 9.00L46.33 9.00L46.33 13.05L45.42 13.05L45.42 9.30Q45.42 8.53 45.31 7.99Q45.21 7.46 44.96 7.13Q44.72 6.79 44.32 6.64Q43.92 6.50 43.32 6.50L43.32 6.50Q42.67 6.50 42.20 6.57Q41.73 6.64 41.59 6.69L41.59 6.69L41.59 13.05L40.68 13.05Z"></path></g><!----><!----></svg>